<?xml version="1.0" standalone="no"?>
<!DOCTYPE svg PUBLIC "-//W3C//DTD SVG 20010904//EN"
 "http://www.w3.org/TR/2001/REC-SVG-20010904/DTD/svg10.dtd">
<svg version="1.0" xmlns="http://www.w3.org/2000/svg"
 width="512.000000pt" height="148.000000pt" viewBox="0 0 512.000000 148.000000"
 preserveAspectRatio="xMidYMid meet">

<g transform="translate(0.000000,148.000000) scale(0.100000,-0.100000)"
fill="#000000" stroke="none">
<path d="M110 1300 c0 -19 8 -43 18 -54 10 -12 69 -113 131 -225 113 -204 113
-204 97 -232 l-17 -28 61 -47 c33 -26 60 -54 60 -62 0 -16 1 -17 -82 51 -45
36 -47 37 -57 18 -22 -40 -12 -57 64 -117 70 -55 87 -74 67 -74 -5 0 -41 25
-80 56 l-72 55 0 -44 0 -45 117 -94 c206 -163 209 -165 243 -160 16 2 30 6 30
8 0 5 -79 146 -84 152 -2 1 -16 -4 -32 -13 -16 -8 -32 -15 -36 -15 -13 0 -9
28 5 33 6 3 1 6 -13 6 -25 1 -60 31 -60 51 0 6 16 10 37 10 20 0 33 3 29 7 -4
4 -21 7 -39 8 -22 0 -32 5 -32 15 0 10 10 15 28 15 21 -1 26 3 22 16 -8 23 31
49 72 49 22 0 44 -10 67 -30 19 -17 37 -27 40 -21 3 5 36 17 73 26 101 27 102
32 8 50 -20 4 -20 4 -1 -10 22 -17 13 -35 -9 -20 -8 6 -40 31 -72 56 l-58 47
-39 -16 -39 -15 34 -28 c40 -34 17 -41 -25 -8 -15 11 -33 18 -41 15 -17 -6
-20 -22 -5 -31 13 -8 13 -25 0 -25 -5 0 -16 13 -25 29 l-15 29 47 26 c63 36
133 58 159 52 12 -3 33 -22 48 -41 31 -41 59 -44 153 -20 103 27 153 16 220
-47 l31 -30 16 23 c26 41 35 106 25 172 -11 66 -16 78 -88 197 -69 113 -68
143 6 190 l43 28 -47 20 c-74 31 -121 35 -204 17 -141 -31 -132 -31 -179 11
-38 34 -49 39 -90 38 -26 -1 -77 -15 -119 -33 -85 -36 -119 -39 -151 -11 -31
27 -76 25 -129 -5 -51 -30 -61 -31 -61 -7 0 10 -11 29 -25 42 l-25 23 0 -33z
m566 -190 l39 -60 75 0 75 -1 -42 -38 c-24 -21 -43 -43 -43 -48 0 -5 18 -35
40 -66 22 -32 35 -57 29 -57 -6 0 -38 16 -70 35 -33 19 -63 35 -68 35 -4 0
-22 -16 -41 -35 -19 -19 -39 -35 -44 -35 -7 0 -11 25 -11 62 l0 63 -55 32
c-30 18 -62 37 -70 42 -10 7 7 10 58 10 l72 1 0 66 c0 36 4 63 9 60 5 -3 26
-33 47 -66z"/>
<path d="M2044 1115 c11 -16 27 -21 75 -23 59 -3 62 -2 52 17 -9 15 -24 20
-75 23 -63 3 -65 2 -52 -17z"/>
<path d="M4240 1129 c0 -3 8 -13 18 -22 13 -12 37 -17 76 -17 56 0 57 0 42 21
-12 17 -26 21 -75 23 -34 0 -61 -2 -61 -5z"/>
<path d="M1200 1080 l0 -50 50 0 50 0 -7 -171 -6 -170 59 3 59 3 -2 168 -3
167 50 0 50 0 0 50 0 50 -150 0 -150 0 0 -50z"/>
<path d="M1532 910 l-4 -220 57 0 56 0 -2 128 -1 127 73 0 74 0 3 -127 3 -128
59 0 60 0 0 106 c0 135 -19 204 -64 239 -29 22 -43 25 -119 25 l-87 0 0 35 0
35 -52 0 -53 0 -3 -220z"/>
<path d="M2747 973 c-4 -87 -7 -186 -7 -220 l0 -63 60 0 60 0 0 130 0 131 73
-3 72 -3 3 -128 3 -128 56 3 56 3 -2 110 c-3 176 -11 203 -64 235 -25 16 -50
20 -114 20 l-83 0 0 35 0 35 -53 0 -54 0 -6 -157z"/>
<path d="M3340 1045 c0 -65 -3 -85 -14 -85 -14 0 -31 -74 -21 -91 4 -5 44 -9
91 -9 75 0 84 2 84 19 0 40 -13 81 -26 81 -9 0 -14 12 -14 35 l0 35 69 0 c91
0 94 -5 85 -120 -8 -104 -15 -113 -92 -108 -38 2 -49 7 -57 26 -9 20 -16 22
-60 20 l-50 -3 -3 -77 -3 -78 136 0 c166 0 193 9 225 74 20 43 21 55 15 164
-12 188 -27 202 -229 202 l-136 0 0 -85z"/>
<path d="M1997 1039 c-40 -30 -57 -71 -64 -148 -7 -81 6 -127 48 -167 27 -26
38 -29 110 -33 l79 -3 0 56 0 56 -43 0 c-60 0 -74 14 -79 83 -5 67 0 70 93 65
l54 -3 3 -128 3 -128 55 3 55 3 0 110 c-1 151 -13 199 -59 230 -33 22 -47 25
-132 25 -80 -1 -99 -4 -123 -21z"/>
<path d="M2403 1037 c-18 -12 -37 -33 -44 -47 -7 -14 -14 -87 -17 -162 l-5
-138 56 0 56 0 3 128 3 127 74 0 75 0 0 -125 1 -125 58 -3 57 -3 0 108 c-1
153 -10 191 -56 231 -37 31 -39 32 -133 31 -82 0 -101 -4 -128 -22z"/>
<path d="M3808 1045 c-14 -8 -37 -31 -49 -52 -31 -50 -34 -193 -6 -236 33 -51
73 -67 169 -67 103 0 128 8 162 53 54 70 42 224 -21 285 -34 32 -35 32 -131
32 -65 -1 -106 -6 -124 -15z m190 -160 c3 -47 0 -62 -14 -72 -21 -15 -92 -17
-114 -3 -17 11 -31 127 -15 134 5 3 39 4 75 3 l65 -2 3 -60z"/>
<path d="M4196 1028 c-28 -25 -40 -44 -46 -78 -24 -122 2 -219 64 -245 20 -8
65 -15 101 -15 l65 0 0 55 0 55 -43 0 c-60 0 -74 15 -80 82 -5 54 -4 58 17 64
12 3 47 4 77 2 l54 -3 3 -127 3 -128 55 0 56 0 -4 138 c-5 153 -14 182 -65
212 -28 16 -52 20 -127 20 -90 0 -94 -1 -130 -32z"/>
<path d="M4616 1040 c-51 -33 -60 -62 -64 -212 l-4 -138 56 0 55 0 3 128 3
127 54 3 c100 6 96 11 93 -133 l-4 -126 59 3 58 3 -1 130 c0 146 -11 181 -67
215 -46 29 -199 29 -241 0z"/>
<path d="M250 898 c-15 -21 -17 -28 -6 -19 16 13 41 51 33 51 -2 0 -14 -15
-27 -32z"/>
<path d="M205 830 c-9 -16 -13 -30 -11 -30 3 0 12 14 21 30 9 17 13 30 11 30
-3 0 -12 -13 -21 -30z"/>
<path d="M296 847 c3 -10 9 -15 12 -12 3 3 0 11 -7 18 -10 9 -11 8 -5 -6z"/>
<path d="M176 775 c-3 -9 -6 -22 -5 -28 0 -7 5 -1 10 12 5 13 8 26 5 28 -2 2
-6 -3 -10 -12z"/>
<path d="M310 770 c-6 -11 -8 -20 -6 -20 3 0 10 9 16 20 6 11 8 20 6 20 -3 0
-10 -9 -16 -20z"/>
<path d="M227 773 c-4 -3 -7 -11 -7 -17 0 -6 5 -5 12 2 6 6 9 14 7 17 -3 3 -9
2 -12 -2z"/>
<path d="M671 737 c2 -1 15 -11 28 -22 l24 -20 -12 23 c-6 12 -19 22 -28 22
-9 0 -14 -1 -12 -3z"/>
<path d="M161 714 c0 -11 3 -14 6 -6 3 7 2 16 -1 19 -3 4 -6 -2 -5 -13z"/>
<path d="M218 723 c-10 -2 -18 -9 -18 -14 0 -13 12 -11 34 6 20 15 16 17 -16
8z"/>
<path d="M980 691 c0 -5 11 -16 24 -24 39 -26 79 -104 73 -143 -8 -46 10 -43
22 4 16 55 13 86 -9 114 -29 37 -110 73 -110 49z"/>
<path d="M886 677 c-16 -12 -14 -14 18 -30 64 -30 94 -107 60 -155 -8 -12 -11
-22 -5 -22 14 0 41 41 41 62 0 10 4 18 9 18 18 0 21 -33 6 -56 -14 -21 -14
-24 -1 -24 20 0 36 31 36 67 0 40 -44 104 -90 131 -45 26 -50 26 -74 9z"/>
<path d="M153 605 c0 -38 2 -53 4 -32 2 20 2 52 0 70 -2 17 -4 1 -4 -38z"/>
<path d="M190 595 c0 -5 4 -16 9 -24 7 -10 12 -11 27 -1 16 9 16 11 2 6 -10
-3 -22 2 -27 12 -6 9 -10 13 -11 7z"/>
<path d="M560 571 c0 -11 6 -22 13 -25 8 -3 6 -9 -7 -20 -11 -9 -15 -16 -10
-16 6 0 16 6 22 12 10 10 15 10 22 -2 5 -8 12 -11 16 -7 4 4 -2 15 -15 23 -15
11 -21 23 -18 35 3 12 0 19 -9 19 -8 0 -14 -9 -14 -19z"/>
<path d="M3290 555 c7 -9 15 -13 17 -11 7 7 -7 26 -19 26 -6 0 -6 -6 2 -15z"/>
<path d="M2885 551 c-10 -17 12 -21 25 -6 10 12 10 15 -3 15 -9 0 -18 -4 -22
-9z"/>
<path d="M1710 535 c33 -19 46 -19 30 0 -7 8 -22 15 -34 15 -20 -1 -20 -2 4
-15z"/>
<path d="M2791 537 c-9 -11 -2 -14 34 -14 36 0 43 3 34 14 -6 7 -22 13 -34 13
-12 0 -28 -6 -34 -13z"/>
<path d="M3330 535 c-10 -12 -10 -15 3 -15 9 0 19 5 23 11 4 8 9 8 17 0 17
-17 31 -13 17 4 -7 8 -20 15 -30 15 -10 0 -23 -7 -30 -15z"/>
<path d="M4010 535 c-16 -19 0 -19 26 0 16 12 16 14 3 15 -9 0 -22 -7 -29 -15z"/>
<path d="M206 525 c-3 -8 -1 -15 3 -15 5 0 11 7 15 15 3 8 1 15 -3 15 -5 0
-11 -7 -15 -15z"/>
<path d="M161 504 c0 -11 3 -14 6 -6 3 7 2 16 -1 19 -3 4 -6 -2 -5 -13z"/>
<path d="M229 508 c-1 -2 -3 -13 -4 -25 -2 -15 2 -20 12 -16 11 4 12 8 3 13
-7 4 -9 13 -6 19 4 6 5 11 2 11 -3 0 -7 -1 -7 -2z"/>
<path d="M336 468 c33 -63 78 -108 137 -138 33 -17 71 -30 85 -30 19 0 -3 22
-102 100 -69 55 -128 100 -131 100 -3 0 2 -15 11 -32z"/>
<path d="M576 485 c-11 -8 -15 -15 -9 -15 6 0 16 7 23 15 16 19 11 19 -14 0z"/>
<path d="M1320 480 c0 -13 7 -20 20 -20 18 0 20 -7 20 -71 0 -67 1 -70 23 -67
20 3 22 9 25 71 3 59 5 67 22 67 13 0 20 7 20 20 0 18 -7 20 -65 20 -58 0 -65
-2 -65 -20z"/>
<path d="M1482 413 c3 -86 3 -88 28 -88 20 0 24 4 22 23 -2 13 2 29 8 37 19
23 40 6 40 -32 0 -30 3 -34 23 -31 21 3 22 8 25 91 l3 87 -26 0 c-22 0 -25 -4
-25 -35 0 -28 -4 -35 -20 -35 -21 0 -38 40 -25 59 4 7 -6 11 -25 11 l-31 0 3
-87z"/>
<path d="M1707 493 c-7 -11 -37 -140 -37 -159 0 -19 34 -18 50 1 7 8 18 15 25
15 7 0 18 -7 25 -15 17 -21 50 -19 49 3 0 9 -8 49 -17 87 -17 70 -17 70 -54
73 -20 2 -38 -1 -41 -5z m53 -90 c0 -14 -6 -23 -15 -23 -16 0 -18 12 -8 48 4
18 8 20 14 10 5 -7 9 -23 9 -35z"/>
<path d="M1852 413 c3 -83 4 -88 26 -91 19 -3 22 1 22 32 0 46 12 46 39 0 14
-23 27 -34 39 -32 14 3 17 17 20 91 l3 87 -26 0 c-24 0 -26 -3 -20 -29 9 -43
-12 -48 -32 -7 -13 29 -22 36 -45 36 l-29 0 3 -87z"/>
<path d="M2040 410 c0 -89 0 -90 25 -90 22 0 25 4 25 35 0 31 3 35 25 35 22 0
25 -4 25 -35 0 -28 4 -35 20 -35 19 0 20 7 20 90 0 82 -2 90 -19 90 -15 0 -21
-8 -23 -32 -2 -25 -8 -33 -23 -33 -15 0 -21 8 -23 33 -3 26 -7 32 -28 32 -24
0 -24 -1 -24 -90z"/>
<path d="M2392 413 c3 -82 5 -88 25 -91 16 -2 22 3 25 20 2 19 11 24 43 28
l40 5 3 63 3 62 -71 0 -71 0 3 -87z m96 19 c3 -16 -2 -22 -17 -22 -24 0 -33
13 -25 35 9 23 38 14 42 -13z"/>
<path d="M2570 410 c0 -89 0 -90 25 -90 22 0 25 4 25 35 0 31 3 35 25 35 22 0
25 -4 25 -36 0 -31 3 -35 23 -32 21 3 22 8 25 91 3 87 3 87 -22 87 -21 0 -25
-5 -28 -32 -2 -25 -8 -33 -23 -33 -15 0 -21 8 -23 33 -3 26 -7 32 -28 32 -24
0 -24 -1 -24 -90z"/>
<path d="M2757 494 c-12 -12 -8 -149 5 -162 17 -17 113 -15 127 2 7 9 11 42 9
88 l-3 73 -65 3 c-36 2 -69 0 -73 -4z m91 -82 c3 -39 1 -42 -22 -42 -23 0 -26
4 -26 38 0 43 7 54 30 50 10 -2 16 -17 18 -46z"/>
<path d="M3110 409 c0 -88 1 -90 23 -87 17 2 23 11 25 36 2 17 7 32 13 32 5 0
12 0 17 0 4 1 9 -14 12 -32 4 -26 10 -33 28 -33 23 0 24 3 25 88 l2 87 -27 0
c-25 0 -28 -3 -28 -35 0 -28 -4 -35 -20 -35 -16 0 -20 7 -20 35 0 31 -3 35
-25 35 -25 0 -25 -1 -25 -91z"/>
<path d="M3297 493 c-12 -12 -8 -148 5 -161 18 -18 103 -15 122 4 11 10 16 34
16 74 0 87 -2 90 -74 90 -35 0 -66 -3 -69 -7z m83 -78 c0 -38 -3 -45 -20 -45
-17 0 -20 7 -20 38 0 41 6 52 27 52 9 0 13 -14 13 -45z"/>
<path d="M3647 493 c-4 -3 -7 -39 -7 -78 0 -85 9 -98 72 -93 36 2 44 7 46 26
3 19 -1 22 -32 22 -36 0 -36 0 -36 45 l0 45 36 0 c29 0 35 3 30 16 -3 9 -6 18
-6 20 0 7 -96 4 -103 -3z"/>
<path d="M3792 413 c3 -86 3 -88 28 -88 21 0 26 6 30 35 3 22 10 35 20 35 10
0 17 -13 20 -35 4 -27 10 -35 25 -35 18 0 20 8 23 88 l3 87 -26 0 c-22 0 -25
-4 -25 -35 0 -28 -4 -35 -20 -35 -16 0 -20 7 -20 35 0 32 -2 35 -30 35 l-31 0
3 -87z"/>
<path d="M3982 413 c3 -83 4 -88 26 -91 21 -3 22 -1 22 87 0 91 0 91 -25 91
l-26 0 3 -87z"/>
<path d="M4240 410 c0 -83 1 -90 20 -90 17 0 20 7 20 40 0 49 15 51 37 5 l17
-36 20 38 21 38 5 -40 c4 -32 9 -40 25 -40 18 0 20 8 23 88 l3 87 -35 0 c-30
0 -35 -4 -41 -30 -4 -16 -12 -30 -19 -30 -6 0 -17 14 -23 30 -9 24 -17 30 -42
30 l-31 0 0 -90z"/>
<path d="M4470 409 c0 -88 1 -90 23 -87 21 3 22 8 25 91 l3 87 -26 0 c-25 0
-25 0 -25 -91z"/>
<path d="M4552 413 c3 -82 5 -88 25 -91 19 -3 22 2 25 40 l3 43 28 -43 c18
-28 34 -42 45 -40 14 3 17 18 20 91 3 87 3 87 -22 87 -21 0 -25 -5 -28 -37
l-3 -38 -20 38 c-15 30 -24 37 -47 37 l-29 0 3 -87z"/>
<path d="M4740 409 c0 -88 1 -90 23 -87 17 2 23 11 25 36 3 28 7 33 25 30 17
-2 22 -10 22 -33 1 -25 5 -30 24 -30 22 0 23 3 24 88 l2 87 -26 0 c-22 0 -26
-4 -22 -22 5 -30 -11 -52 -31 -45 -10 4 -16 18 -16 37 0 25 -4 30 -25 30 -25
0 -25 -1 -25 -91z"/>
<path d="M765 476 c-49 -6 -98 -16 -108 -22 -17 -9 -16 -12 5 -50 12 -23 37
-50 55 -62 32 -22 33 -22 64 -3 l30 19 -55 43 c-53 42 -67 59 -47 59 5 0 34
-20 64 -45 l54 -44 23 24 23 25 -23 25 c-23 25 -14 33 18 16 12 -6 24 -3 41
10 l23 19 -38 -1 c-22 -1 -79 -7 -129 -13z"/>
<path d="M310 451 c0 -6 4 -13 10 -16 6 -3 7 1 4 9 -7 18 -14 21 -14 7z"/>
<path d="M255 440 c-3 -5 -1 -10 4 -10 6 0 11 5 11 10 0 6 -2 10 -4 10 -3 0
-8 -4 -11 -10z"/>
<path d="M211 378 c24 -48 118 -144 167 -171 50 -28 38 -14 -22 26 -56 37
-112 99 -140 155 -9 17 -19 32 -21 32 -3 0 4 -19 16 -42z"/>
<path d="M240 409 c0 -5 5 -7 10 -4 6 3 10 8 10 11 0 2 -4 4 -10 4 -5 0 -10
-5 -10 -11z"/>
<path d="M330 416 c0 -2 8 -10 18 -17 15 -13 16 -12 3 4 -13 16 -21 21 -21 13z"/>
<path d="M948 403 c6 -2 18 -2 25 0 6 3 1 5 -13 5 -14 0 -19 -2 -12 -5z"/>
<path d="M854 368 l-29 -33 33 29 c17 17 32 31 32 33 0 8 -8 1 -36 -29z"/>
<path d="M265 370 c-3 -6 1 -7 9 -4 18 7 21 14 7 14 -6 0 -13 -4 -16 -10z"/>
<path d="M360 377 c0 -3 17 -17 37 -33 20 -15 33 -23 29 -16 -8 13 -66 56 -66
49z"/>
<path d="M920 376 c0 -2 7 -6 15 -10 8 -3 15 -1 15 4 0 6 -7 10 -15 10 -8 0
-15 -2 -15 -4z"/>
<path d="M305 350 c-3 -5 -1 -10 4 -10 6 0 11 5 11 10 0 6 -2 10 -4 10 -3 0
-8 -4 -11 -10z"/>
<path d="M900 355 c0 -6 6 -17 13 -24 10 -11 7 -12 -13 -6 -22 7 -23 6 -12 -8
13 -15 42 -13 42 2 0 12 -29 47 -30 36z"/>
<path d="M945 296 c-33 -34 -71 -70 -85 -79 l-25 -18 25 12 c29 14 127 106
141 131 14 25 11 23 -56 -46z"/>
<path d="M305 320 c-3 -5 -2 -10 4 -10 5 0 13 5 16 10 3 6 2 10 -4 10 -5 0
-13 -4 -16 -10z"/>
<path d="M850 290 c0 -19 3 -21 12 -12 9 9 9 15 0 24 -9 9 -12 7 -12 -12z"/>
<path d="M416 262 c-3 -5 4 -16 15 -25 23 -21 25 -21 32 -3 4 10 1 13 -9 9 -8
-3 -14 1 -14 11 0 17 -15 22 -24 8z"/>
<path d="M730 246 c0 -2 7 -7 16 -10 8 -3 12 -2 9 4 -6 10 -25 14 -25 6z"/>
<path d="M706 225 c-3 -8 -1 -15 4 -15 6 0 10 7 10 15 0 8 -2 15 -4 15 -2 0
-6 -7 -10 -15z"/>
<path d="M583 217 c3 -10 2 -17 -3 -17 -6 0 -10 -4 -10 -8 0 -4 8 -8 19 -8 19
0 18 30 -2 43 -6 4 -8 0 -4 -10z"/>
<path d="M620 220 c0 -6 7 -18 15 -26 9 -10 15 -11 15 -4 0 6 -7 18 -15 26 -9
10 -15 11 -15 4z"/>
<path d="M682 210 c0 -14 2 -19 5 -12 2 6 2 18 0 25 -3 6 -5 1 -5 -13z"/>
<path d="M480 210 c-13 -8 -12 -10 3 -10 9 0 17 5 17 10 0 12 -1 12 -20 0z"/>
<path d="M478 163 c7 -3 16 -2 19 1 4 3 -2 6 -13 5 -11 0 -14 -3 -6 -6z"/>
<path d="M738 163 c7 -3 16 -2 19 1 4 3 -2 6 -13 5 -11 0 -14 -3 -6 -6z"/>
<path d="M518 153 c6 -2 18 -2 25 0 6 3 1 5 -13 5 -14 0 -19 -2 -12 -5z"/>
<path d="M698 153 c7 -3 16 -2 19 1 4 3 -2 6 -13 5 -11 0 -14 -3 -6 -6z"/>
</g>
</svg>
